#define layout_gridbyfull_width 13
#define layout_gridbyfull_height 11
static unsigned char layout_gridbyfull_bits[] = {
   0xff, 0x1f, 0x11, 0x11, 0x01, 0x10, 0x11, 0x11, 0x01, 0x10, 0x55, 0x15,
   0x01, 0x10, 0x11, 0x11, 0x01, 0x10, 0x11, 0x11, 0xff, 0x1f };
